# xmcd CD database file
#
# Track frame offsets:
#	150
#	13820
#	29464
#	46593
#	61038
#	72660
#	84562
#	98618
#	119400
#	130868
#	148347
#	159357
#
# Disc length: 2284 seconds
#
# Revision: 0
# Processed by: cddbd v1.5.2PL0 Copyright (c) Steve Scherf et al.
# Submitted via: CDex 1.70beta2
#
DISCID=9f08ea0c
DTITLE=Allen Frizzell - A Little Bit Of Lefty Left In Me
DYEAR=2008
DGENRE=Country
TTITLE0=She's Gone, Gone, Gone
TTITLE1=That's The Way Love Goes
TTITLE2=Saginaw Michigan
TTITLE3=I Want To Be With You Always
TTITLE4=Traveling Blues
TTITLE5=Mom And Dad's Waltz
TTITLE6=Long Black Veil
TTITLE7=I Never Go Around Mirrors
TTITLE8=A Little Bit Of Lefty Left In Me
TTITLE9=I Love You A 1000 Ways
TTITLE10=Always Late
TTITLE11=We Crucified Our Jesus
EXTD=YEAR: 2008
EXTT0=
EXTT1=
EXTT2=
EXTT3=
EXTT4=
EXTT5=
EXTT6=
EXTT7=
EXTT8=
EXTT9=
EXTT10=
EXTT11=
PLAYORDER=
